<svg xmlns="http://www.w3.org/2000/svg" viewBox="0 0 48 48">
  <path fill="#00A1E0" d="M9.4,13.3c1.4-1.4,3.1-2.4,5-3c2-0.6,4.1-0.6,6.1,0c1.9,0.6,3.6,1.6,5,3c1.4,1.4,2.4,3.1,3,5
    c0.6,2,0.6,4.1,0,6.1c-0.6,1.9-1.6,3.6-3,5c-1.4,1.4-3.1,2.4-5,3c-2,0.6-4.1,0.6-6.1,0c-1.9-0.6-3.6-1.6-5-3
    c-1.4-1.4-2.4-3.1-3-5c-0.6-2-0.6-4.1,0-6.1C7,16.4,8,14.7,9.4,13.3z"/>
  <path fill="#FFFFFF" d="M23.5,19.3c-0.4-0.4-0.9-0.7-1.5-0.9c-0.6-0.2-1.2-0.2-1.8,0c-0.6,0.2-1.1,0.5-1.5,0.9
    c-0.4,0.4-0.7,0.9-0.9,1.5c-0.2,0.6-0.2,1.2,0,1.8c0.2,0.6,0.5,1.1,0.9,1.5c0.4,0.4,0.9,0.7,1.5,0.9c0.6,0.2,1.2,0.2,1.8,0
    c0.6-0.2,1.1-0.5,1.5-0.9c0.4-0.4,0.7-0.9,0.9-1.5c0.2-0.6,0.2-1.2,0-1.8C24.2,20.2,23.9,19.7,23.5,19.3z"/>
</svg> 